<svg xmlns="http://www.w3.org/2000/svg" viewBox="0 0 600 600" fill="none" shape-rendering="auto"><metadata xmlns:rdf="http://www.w3.org/1999/02/22-rdf-syntax-ns#" xmlns:xsi="http://www.w3.org/2001/XMLSchema-instance" xmlns:dc="http://purl.org/dc/elements/1.1/" xmlns:dcterms="http://purl.org/dc/terms/"><rdf:RDF><rdf:Description><dc:title>Lorelei Neutral</dc:title><dc:creator>Lisa Wischofsky</dc:creator><dc:source xsi:type="dcterms:URI">https://www.figma.com/community/file/1198749693280469639</dc:source><dcterms:license xsi:type="dcterms:URI">https://creativecommons.org/publicdomain/zero/1.0/</dcterms:license><dc:rights>Remix of „Lorelei Neutral” (https://www.figma.com/community/file/1198749693280469639) by „Lisa Wischofsky”, licensed under „CC0 1.0” (https://creativecommons.org/publicdomain/zero/1.0/)</dc:rights></rdf:Description></rdf:RDF></metadata><mask id="viewboxMask"><rect width="600" height="600" rx="0" ry="0" x="0" y="0" fill="#fff" /></mask><g mask="url(#viewboxMask)"><rect fill="#ffffff" width="600" height="600" x="0" y="0" /><g transform="translate(-246 -234)"><path d="M479 386c16 1 33 7 46 17 3 3 7 5 8 9 1 2-1 5-3 4-8-1-15-5-23-7-7-3-15-5-23-5-7-1-15 0-22 1-15 2-30 9-43 16l-21 9-1-1c1-4 3-9 6-12 6-10 17-16 27-21 15-7 32-11 49-10ZM673 390c5 2 11 5 15 10 4 4 5 9 4 15l-23-7c-7-2-13-1-20-2-7 0-15 1-21 5l-13 8h-3c-1-3 0-6 2-8 5-9 13-15 22-18 12-4 24-6 37-3Z" fill="#000000"/></g><g transform="translate(-246 -234)"><path d="M681 473c6 2 11 6 14 12 2 2 3 6 2 9-2 4-7 6-11 5-5-1-6-6-11-9-6-4-12-4-19-2 3 2 6 4 7 8 4 7 4 17 2 25-2 6-5 12-11 15-6 2-13 0-16-5-5-6-6-15-5-23l-11 20c-1 3-1 6-4 8-2-7 0-13 2-19 6-17 19-31 34-40 8-4 18-6 27-4ZM445 484c31-4 63 14 76 42 2 2 3 6 1 9-3-1-5-4-7-7-5-8-11-14-19-20 1 5 2 10 1 16-1 8-5 17-12 21-6 4-13 3-18 0-7-5-10-12-11-20-1-9 1-20 7-28-19 2-37 8-52 20l-7 4c-4 1-7-1-8-4-2-3-1-8 2-10 13-13 29-21 47-23Z" fill="#000000"/></g><g transform="translate(-246 -234)"></g><g transform="translate(-246 -234)"><path fill-rule="evenodd" clip-rule="evenodd" d="M654 667c2-4 0-9-4-10-8-2-16-1-24-1l-57 6a445 445 0 0 1-56 5l-21 1a255 255 0 0 1-34-1c-4-1-8-1-12 1h1c0 2 1 3 3 3 8 3 16 4 25 5 1 4 3 7 7 9l11 7a503 503 0 0 1 5 3l23 10a175 175 0 0 0 31 8c7 2 14 3 22 2l21-5c6-2 12-5 17-9a129 129 0 0 0 26-23l8-8c3 0 6 0 8-3Zm-30 9 8-9a207 207 0 0 0-78 4l-4 1c-22 3-45 6-67 5l5 2 20 8c17 8 35 13 53 17 15 2 30-2 43-8 8-5 14-12 20-20Z" fill="#000000"/></g><g transform="translate(-246 -234)"><path d="M594 572a37 37 0 0 1 19 29c0 9-5 18-13 22l-17 7c-4 1-6 2-9 0-2-3-1-4 1-6 6-5 15-7 21-12 3-2 5-5 5-9 0-10-5-17-7-26v-5Z" fill="#000000"/></g><g transform="translate(-246 -234)"></g></g></svg>