<svg xmlns="http://www.w3.org/2000/svg" fill="none" viewBox="0 0 600 600"><mask id="a"><rect width="600" height="600" fill="#fff" rx="0" ry="0"/></mask><g mask="url(#a)"><path fill="#fff" d="M0 0h600v600H0z"/><path fill="#000" d="M250 141c10 1 20 4 27 11 3 3 5 7 6 11-11-5-22-6-33-6-6 1-12 4-17 7-23 12-43 29-66 41l-20 14-11 11c-1-5 1-10 2-14 4-10 11-17 19-24l24-17c13-9 27-19 41-26 9-4 18-8 28-8m205 36c-6 3-11 3-17 4-5 1-10 3-14 6-9 7-17 15-24 24-9 10-17 18-29 24l-7 2c-2 1-4 0-6 2-4 5-4 13-9 17-2 0-2-2-2-3v-13c1-5 3-12 7-16s9-4 13-8l15-10 23-18c6-5 13-10 20-13 10-3 21-3 30 2m-211 81c7 3 13 8 19 13 6 6 12 13 13 22 0 2 1 5-2 6l-4-8c2 9-3 20-12 24-6 3-13 4-19 3-9-1-17-6-23-13-4-6-6-14-4-21 1-8 5-15 11-19a90 90 0 0 0-55 14c-5 3-10 7-13 12-2 3-5 5-9 5-6 0-10-7-8-12l8-11c12-10 26-18 41-22 19-6 40-2 57 7m191-8c6 2 14 4 17 9 4 6 1 13-6 14 2 8 2 17-3 24-7 9-23 11-31 3-5-6-9-14-8-22 1-4 3-7 6-11-12 3-21 11-28 20-4 5-6 10-9 16l-5 1 1-6a90 90 0 0 1 39-43c8-5 17-7 27-5m-14 173c2 0 4 0 5 2 2 2 1 5-1 6l-16 4c-21 3-42 7-64 9-6 0-12 2-17 0l15-5 62-13zm-64-44v1c-4 8-11 15-20 18-3 1-7 1-9-1v-4c7-5 16-9 24-12z"/></g></svg>