<svg xmlns="http://www.w3.org/2000/svg" fill="none" viewBox="0 0 600 600"><mask id="a"><rect width="600" height="600" fill="#fff" rx="0" ry="0"/></mask><g mask="url(#a)"><path fill="#fff" d="M0 0h600v600H0z"/><path fill="#000" d="M287 124c6 2 9 8 10 14 0 8-3 16-7 22-3 3-7 4-10 1-4-3-2-10-2-15l-13 10c-6 4-13 7-20 9-9 4-19 5-30 8l-25 8c-8 3-15 8-22 12l-25 17c-5 3-8 7-11 12-2-4-1-8 1-11a401 401 0 0 1 35-29c16-13 36-21 55-28l28-11c8-4 14-11 21-16 5-2 10-4 15-3m93 18 6 7c17 7 33 7 49 16 4 2 7 6 9 10s1 8-2 12l-16-6c-12-6-24-7-36-11-7-3-14-4-19-10-4 8-4 17-8 26-1 1-1 4-4 3l-1-8 2-11c1-8 4-16 7-23 2-6 8-8 13-5m44 87c7 1 14 4 18 10 6 7 7 15 8 24 0 4-1 9-3 12-3 4-9 4-12 0-2-3-2-8-3-12 0-7-3-15-10-18 10 15 11 33 7 50-2 9-6 16-13 22-4 4-11 6-17 4-6-1-10-6-13-11-4-8-6-16-6-25l-5 14c-1 3-2 6-5 9-3-3-3-6-4-10a83 83 0 0 1 34-61c7-5 15-8 24-8m-215 5c14 0 29 5 40 14 14 10 24 25 28 42v14c-1 1-2 2-4 1a163 163 0 0 0-17-27c1 14-2 28-11 39-6 8-15 14-26 15-11 0-21-7-27-16-8-12-9-27-6-41 2-9 7-17 13-23l-13 5c-6 5-13 9-18 16l-5 6c-3 4-9 4-12 0-3-3-3-8-1-12 6-8 13-16 22-22 11-8 24-11 37-11"/><path fill="#fff" d="M413 264c1 7-1 13-3 20l-5 9c-1 2-4 2-5 1l-4-7c-3-6-5-13-4-19 0-3 2-4 5-4 3 1 4 3 5 5 1-2 2-6 4-7 2-2 6-1 7 2m-184 2c4 0 6 3 7 6 1 8-2 14-4 22 0 4-2 8-6 11-2 1-4 0-5-2l-10-15-3-8c-1-4-1-8 2-12 2-2 5-2 8 0l5 6c1-4 2-7 6-8"/><path fill="#000" d="M409 429c3 1 4 2 5 5 2 6 1 14-5 18-5 5-13 9-16 15-2 5-6 8-11 10-7 5-15 9-24 8-10-1-17-6-26-8l-33-4-9-1c-4 1-8 2-13 1-5 0-9-2-13-3-10-2-16 5-26 3-5-1-9-6-10-12 0-7 2-12 5-18-5 0-8 3-12 6-1-3 1-5 2-8 3-4 8-6 13-7h8c3 2 3 6 2 9-2 6-6 12-5 18 1 3 5 3 8 2 5-1 11-2 16-1l10 2c6 1 13-3 19-2l22 3 23 5c7 3 13 7 21 6 6-1 12-6 16-10 4-3 5-7 8-11l15-10 5-4 4-9zm-52-50v1c-4 8-11 15-20 18-3 1-7 1-9-1v-4c7-5 16-9 24-12z"/></g></svg>